<?xml version="1.0" encoding="UTF-8" standalone="no"?>
<svg width="229px" height="33px" viewBox="0 0 229 33" version="1.1" xmlns="http://www.w3.org/2000/svg" xmlns:xlink="http://www.w3.org/1999/xlink">
    <!-- Generator: Sketch 3.6.1 (26313) - http://www.bohemiancoding.com/sketch -->
    <title>Bigwave Logo Orginal Copy 3</title>
    <desc>Created with Sketch.</desc>
    <defs></defs>
    <g id="Page-1" stroke="none" stroke-width="1" fill="none" fill-rule="evenodd">
        <g id="Imported-Layers" transform="translate(-518.000000, -54.000000)">
            <g id="Group-104" transform="translate(0.000000, 1.000000)">
                <g id="Bigwave-Logo-Orginal-Copy-3" transform="translate(518.150781, 53.014648)">
                    <path d="M8.35558907,22.3498579 L8.35558907,26.2472343 L9.82126907,26.2472343 C10.6984607,26.2472343 11.3729999,26.0779055 11.8449068,25.7392429 C12.3168137,25.4005803 12.5527636,24.9203529 12.5527636,24.2985461 C12.5527636,23.6656357 12.3168137,23.1826323 11.8449068,22.8495216 C11.3729999,22.5164108 10.6984607,22.3498579 9.82126907,22.3498579 L8.35558907,22.3498579 L8.35558907,22.3498579 Z M8.35558907,13.6890216 L8.35558907,17.1033898 L9.50481544,17.1033898 C10.2154517,17.1033898 10.7567486,16.9562681 11.1287223,16.6620202 C11.5006959,16.3677724 11.68668,15.9430625 11.68668,15.3878779 C11.68668,14.8326934 11.5006959,14.4107594 11.1287223,14.1220634 C10.7567486,13.8333674 10.2154517,13.6890216 9.50481544,13.6890216 L8.35558907,13.6890216 L8.35558907,13.6890216 Z M0.127794535,32.2765088 L0.127794535,7.89292341 L11.8032682,7.89292341 C14.3015988,7.89292341 16.2502675,8.47863437 17.6493327,9.65007386 C19.0483979,10.8215134 19.74792,12.4509557 19.74792,14.5384498 C19.74792,15.8708928 19.4175901,16.9784694 18.7569204,17.8612129 C18.0962508,18.7439565 17.1607788,19.3185639 15.9504763,19.5850525 C17.6049264,19.9292669 18.8374177,20.5788232 19.6479872,21.5337407 C20.4585568,22.4886582 20.8638354,23.7711153 20.8638354,25.3811507 C20.8638354,27.6574075 20.0949163,29.375678 18.557055,30.5360138 C17.0191936,31.6963496 14.7568504,32.2765088 11.7699573,32.2765088 L0.127794535,32.2765088 L0.127794535,32.2765088 Z M21.1938819,32.2765088 L21.1938819,7.89292341 L30.1045501,7.89292341 L30.1045501,32.2765088 L21.1938819,32.2765088 L21.1938819,32.2765088 Z M47.3731939,23.5490507 L43.5590948,23.5490507 L43.5590948,17.8195743 L57.0333575,17.8195743 C57.0555649,18.3192404 57.0722202,18.6912085 57.0833239,18.9354898 C57.0944275,19.179771 57.0999793,19.3962897 57.0999793,19.5850525 C57.0999793,20.9841177 56.966737,22.2610231 56.7002484,23.415807 C56.4337598,24.570591 56.0451364,25.5921153 55.5343666,26.4804107 C54.2907531,28.5679047 52.6862937,30.1640365 50.7209402,31.2688538 C48.7555868,32.3736712 46.5237782,32.9260716 44.0254475,32.9260716 C42.1822346,32.9260716 40.4695159,32.6179487 38.8872398,32.0016938 C37.3049637,31.3854389 35.9031436,30.4777257 34.6817375,29.278527 C33.4714351,28.0793283 32.5553943,26.7080429 31.9335875,25.1646298 C31.3117808,23.6212166 31.0008821,21.9445843 31.0008821,20.1346825 C31.0008821,18.313677 31.3145566,16.6287171 31.9419152,15.079752 C32.5692738,13.530787 33.4825388,12.1678293 34.6817375,10.990838 C35.8920399,9.80274292 37.2910841,8.89780561 38.878912,8.27599886 C40.46674,7.65419212 42.1822346,7.34329341 44.0254475,7.34329341 C46.5237782,7.34329341 48.7444832,7.89014203 50.6876293,8.98385568 C52.6307754,10.0775693 54.2185795,11.6792529 55.4510893,13.7889543 L47.6396811,16.6870034 C47.2288445,16.0096782 46.7347377,15.5044678 46.1573457,15.171357 C45.5799537,14.8382463 44.9192939,14.6716934 44.1753466,14.6716934 C42.8762146,14.6716934 41.8408109,15.1658003 41.0691043,16.1540289 C40.2973977,17.1422574 39.9115502,18.4691287 39.9115502,20.1346825 C39.9115502,21.8557547 40.3001736,23.1909536 41.077432,24.1403193 C41.8546905,25.089685 42.9539395,25.5643607 44.375212,25.5643607 C45.2190926,25.5643607 45.9047353,25.3867043 46.4321607,25.0313861 C46.959586,24.676068 47.2732606,24.1819611 47.3731939,23.5490507 L47.3731939,23.5490507 L47.3731939,23.5490507 Z M176.48897,23.415807 L180.136514,23.415807 L179.387019,20.6510016 C179.020597,19.2519364 178.770768,18.1748944 178.637523,17.4198434 C178.504279,16.6647924 178.421002,15.9541667 178.387691,15.2879452 L178.237792,15.2879452 C178.204481,15.9541667 178.121205,16.6647924 177.98796,17.4198434 C177.854716,18.1748944 177.604887,19.2519364 177.238465,20.6510016 L176.48897,23.415807 L176.48897,23.415807 Z M164.863462,32.2765088 L173.55761,7.89292341 L183.317706,7.89292341 L191.845299,32.2765088 L182.418311,32.2765088 L181.635505,29.2119052 L175.02329,29.2119052 L174.273794,32.2765088 L164.863462,32.2765088 L164.863462,32.2765088 Z M194.308888,32.2765088 L184.998489,7.89292341 L194.492098,7.89292341 L197.073693,16.7203143 C197.451219,18.0083426 197.731583,19.096488 197.914794,19.9847834 C198.098005,20.8730787 198.217368,21.7058431 198.272886,22.4831016 L198.439441,22.4831016 C198.550477,21.6614284 198.708703,20.7953534 198.914121,19.8848507 C199.119539,18.9743479 199.383248,17.9861342 199.705255,16.9201798 L202.43675,7.89292341 L211.747149,7.89292341 L202.470061,32.2765088 L194.308888,32.2765088 L194.308888,32.2765088 Z M212.170046,32.2765088 L212.170046,7.89292341 L228.475736,7.89292341 L228.475736,14.5051389 L220.764261,14.5051389 L220.764261,16.8535579 L227.759552,16.8535579 L227.759552,23.0993534 L220.764261,23.0993534 L220.764261,25.6642934 L228.675602,25.6642934 L228.675602,32.2765088 L212.170046,32.2765088 L212.170046,32.2765088 Z" id="BIGWWWAVE" fill="#5D5D5D"></path>
                    <path d="M71.8199273,19.934817 C71.7866162,20.7342829 71.603408,21.8834977 71.2702973,23.3824961 C71.2147788,23.6267773 71.1703647,23.821089 71.1370536,23.965437 L69.3049536,32.2765088 L61.6601,32.2765088 L54.5315655,7.89292341 L63.3256454,7.89292341 L65.2410227,18.6356916 C65.4075781,19.5795054 65.5352686,20.4428045 65.6240982,21.2256148 C65.7129277,22.008425 65.7684453,22.7440336 65.7906527,23.4324625 L65.9905182,23.4324625 C66.0127256,22.4664413 66.1848302,21.1950876 66.5068373,19.6183634 C66.5290446,19.4740154 66.5512517,19.3574284 66.5734591,19.2685989 L68.8885673,7.89292341 L75.0677409,7.89292341 L77.3828491,19.2852543 C77.3939528,19.3518765 77.4161598,19.4629117 77.4494709,19.6183634 C77.771478,21.2061913 77.9435826,22.477545 77.96579,23.4324625 L78.1656554,23.4324625 C78.1878628,22.7440336 78.2433804,22.008425 78.33221,21.2256148 C78.4210395,20.4428045 78.5487301,19.5795054 78.7152854,18.6356916 L80.6306627,7.89292341 L89.4247427,7.89292341 L82.2962082,32.2765088 L74.6513545,32.2765088 L72.8192545,23.965437 C72.7859435,23.821089 72.7415294,23.6212256 72.6860109,23.3658407 C72.3529001,21.877946 72.169692,20.7342829 72.1363809,19.934817 L71.8199273,19.934817 L71.8199273,19.934817 Z M108.065164,18.3921056 C108.027689,19.2915046 107.82158,20.5843713 107.44683,22.2707445 C107.384372,22.5455609 107.334406,22.7641616 107.296931,22.9265531 L105.235819,32.2765088 L96.6353582,32.2765088 L88.6157569,4.84497523 L98.5090969,4.84497523 L100.663896,16.9305894 C100.851271,17.99238 100.994923,18.9635914 101.094856,19.844253 C101.194789,20.7249146 101.257247,21.5524742 101.28223,22.3269567 L101.507079,22.3269567 C101.532062,21.2401829 101.72568,19.80991 102.087938,18.0360952 C102.112921,17.8737037 102.137904,17.7425433 102.162887,17.6426101 L104.767384,4.84497523 L111.718954,4.84497523 L114.323451,17.6613475 C114.335943,17.7362974 114.360926,17.8612121 114.3984,18.0360952 C114.760658,19.8224016 114.954276,21.2526745 114.979259,22.3269567 L115.204108,22.3269567 C115.229091,21.5524742 115.291549,20.7249146 115.391482,19.844253 C115.491415,18.9635914 115.635067,17.99238 115.822442,16.9305894 L117.977241,4.84497523 L127.870581,4.84497523 L119.85098,32.2765088 L111.25052,32.2765088 L109.189407,22.9265531 C109.151932,22.7641616 109.101966,22.5393152 109.039508,22.2520071 C108.664758,20.5781256 108.458649,19.2915046 108.421174,18.3921056 L108.065164,18.3921056 L108.065164,18.3921056 Z M149.507943,16.0780383 C149.464223,17.1273372 149.223762,18.6356817 148.786554,20.6031171 C148.713686,20.9237363 148.655392,21.1787703 148.611672,21.3682271 L146.20704,32.2765088 L136.17317,32.2765088 L126.816968,0.273052962 L138.359198,0.273052962 L140.873131,14.3729362 C141.091735,15.6116918 141.259329,16.7447719 141.375918,17.7722104 C141.492506,18.7996488 141.565373,19.7651351 141.59452,20.668698 L141.856844,20.668698 C141.885991,19.4007952 142.111878,17.7321435 142.534513,15.6626929 C142.56366,15.4732362 142.592807,15.3202157 142.621954,15.203627 L145.660533,0.273052962 L153.770699,0.273052962 L156.809278,15.2254873 C156.823852,15.3129288 156.852999,15.4586626 156.896719,15.6626929 C157.319354,17.7467171 157.545241,19.4153688 157.574388,20.668698 L157.836712,20.668698 C157.865859,19.7651351 157.938726,18.7996488 158.055314,17.7722104 C158.171903,16.7447719 158.339497,15.6116918 158.558101,14.3729362 L161.072034,0.273052962 L172.614264,0.273052962 L163.258062,32.2765088 L153.224192,32.2765088 L150.81956,21.3682271 C150.77584,21.1787703 150.717546,20.9164496 150.644678,20.5812569 C150.20747,18.6283951 149.967009,17.1273372 149.923289,16.0780383 L149.507943,16.0780383 L149.507943,16.0780383 Z" id="BIGWWWAVE-Copy-5" fill="#50E3C2"></path>
                </g>
            </g>
        </g>
    </g>
</svg>